# Blender v2.93.6 OBJ File: 'car2join.blend'
# www.blender.org
mtllib car2.mtl
o Cube.002
v 0.810451 -0.150059 1.389639
v 0.810451 0.550059 1.389639
v 0.810451 -0.150059 0.689521
v 0.810451 0.550059 0.689521
v 1.141911 -0.150059 1.389639
v 1.141911 0.550059 1.389639
v 1.141911 -0.150059 0.689521
v 1.141911 0.550059 0.689521
v 0.810451 -0.150059 -1.111362
v 0.810451 0.550059 -1.111362
v 0.810451 -0.150059 -1.811480
v 0.810451 0.550059 -1.811480
v 1.141911 -0.150059 -1.111362
v 1.141911 0.550059 -1.111362
v 1.141911 -0.150059 -1.811480
v 1.141911 0.550059 -1.811480
v -1.189549 -0.150059 1.389639
v -1.189549 0.550059 1.389639
v -1.189549 -0.150059 0.689521
v -1.189549 0.550059 0.689521
v -0.858089 -0.150059 1.389639
v -0.858089 0.550059 1.389639
v -0.858089 -0.150059 0.689521
v -0.858089 0.550059 0.689521
v -1.189549 -0.150059 -1.111362
v -1.189549 0.550059 -1.111362
v -1.189549 -0.150059 -1.811480
v -1.189549 0.550059 -1.811480
v -0.858089 -0.150059 -1.111362
v -0.858089 0.550059 -1.111362
v -0.858089 -0.150059 -1.811480
v -0.858089 0.550059 -1.811480
v 1.000000 0.929060 -2.772173
v 1.000000 0.223025 -2.772173
v 1.000000 0.929060 2.404107
v 1.000000 0.223025 2.404107
v -1.000000 0.929060 -2.772173
v -1.000000 0.223025 -2.772173
v -1.000000 0.929060 2.404107
v -1.000000 0.223025 2.404107
v -1.000000 0.902572 1.996598
v -1.000000 1.881247 1.000000
v -1.000000 0.902572 -2.171196
v -1.000000 1.881247 -1.000000
v 1.000000 0.902572 1.996598
v 1.000000 1.881247 1.000000
v 1.000000 0.902572 -2.171196
v 1.000000 1.881247 -1.000000
v -0.747015 0.914474 -1.885041
v -0.747015 1.633315 -1.031636
v -0.747015 1.143886 -2.078279
v -0.747015 1.862726 -1.224874
v 0.750392 0.914474 -1.885041
v 0.750392 1.633315 -1.031636
v 0.750392 1.143886 -2.078279
v 0.750392 1.862726 -1.224874
v 0.827299 1.071710 1.000000
v 0.827299 1.785974 0.999999
v 0.827299 1.071710 -1.000000
v 0.827299 1.785974 -1.000000
v 1.181557 1.071710 1.000000
v 1.181557 1.785974 0.999999
v 1.181557 1.071710 -1.000000
v 1.181557 1.785974 -1.000000
v -1.199980 1.071710 1.000000
v -1.199980 1.785974 0.999999
v -1.199980 1.071710 -1.000000
v -1.199980 1.785974 -1.000000
v -0.845721 1.071710 1.000000
v -0.845721 1.785974 0.999999
v -0.845721 1.071710 -1.000000
v -0.845721 1.785974 -1.000000
vt 0.425316 0.229416
vt 0.425316 0.425316
vt 0.229416 0.425316
vt 0.229416 0.229416
vt 0.334096 0.665904
vt 0.334096 0.861804
vt 0.241350 0.861804
vt 0.241350 0.665904
vt 0.207072 0.229416
vt 0.207072 0.425316
vt 0.011172 0.425316
vt 0.011172 0.229416
vt 0.103918 0.665904
vt 0.103918 0.861804
vt 0.011172 0.861804
vt 0.011172 0.665904
vt 0.126261 0.665904
vt 0.219007 0.665904
vt 0.219007 0.861804
vt 0.126261 0.861804
vt 0.677839 0.447660
vt 0.770585 0.447660
vt 0.770585 0.643560
vt 0.677838 0.643560
vt 0.207072 0.011172
vt 0.207072 0.207072
vt 0.011171 0.207072
vt 0.011171 0.011172
vt 0.758650 0.229416
vt 0.758650 0.425316
vt 0.665904 0.425316
vt 0.665904 0.229416
vt 0.207072 0.447660
vt 0.207072 0.643560
vt 0.011172 0.643560
vt 0.011172 0.447660
vt 0.758650 0.011172
vt 0.758650 0.207072
vt 0.665904 0.207072
vt 0.665904 0.011172
vt 0.447660 0.447659
vt 0.540406 0.447659
vt 0.540406 0.643560
vt 0.447660 0.643560
vt 0.562749 0.447659
vt 0.655495 0.447659
vt 0.655495 0.643560
vt 0.562749 0.643560
vt 0.425316 0.643560
vt 0.229416 0.643560
vt 0.229416 0.447660
vt 0.425316 0.447660
vt 0.885674 0.447660
vt 0.885674 0.643560
vt 0.792928 0.643560
vt 0.792928 0.447660
vt 0.643560 0.425316
vt 0.447660 0.425316
vt 0.447660 0.229416
vt 0.643560 0.229416
vt 0.885674 0.665904
vt 0.885674 0.861804
vt 0.792928 0.861804
vt 0.792928 0.665904
vt 0.677838 0.665904
vt 0.770584 0.665904
vt 0.770584 0.861804
vt 0.677838 0.861804
vt 0.780993 0.011172
vt 0.873739 0.011172
vt 0.873739 0.207072
vt 0.780993 0.207072
vt 0.425316 0.011172
vt 0.425316 0.207072
vt 0.229415 0.207072
vt 0.229415 0.011172
vt 0.988828 0.011172
vt 0.988828 0.207072
vt 0.896082 0.207072
vt 0.896082 0.011172
vt 0.643560 0.011172
vt 0.643560 0.207072
vt 0.447660 0.207072
vt 0.447660 0.011172
vt 0.873739 0.229416
vt 0.873739 0.425316
vt 0.780993 0.425316
vt 0.780993 0.229416
vt 0.447660 0.665903
vt 0.540406 0.665903
vt 0.540406 0.861804
vt 0.447660 0.861804
vt 0.562749 0.665903
vt 0.655495 0.665903
vt 0.655495 0.861804
vt 0.562749 0.861804
vt 0.006397 0.506397
vt 0.493603 0.506397
vt 0.493603 0.993603
vt 0.006397 0.993603
vt 0.863175 0.993603
vt 0.691183 0.993603
vt 0.691183 0.506397
vt 0.863175 0.506397
vt 0.678389 0.493603
vt 0.506397 0.493603
vt 0.506397 0.006397
vt 0.678389 0.006397
vt 0.006397 0.006397
vt 0.493603 0.006397
vt 0.493603 0.493603
vt 0.006397 0.493603
vt 0.863175 0.493603
vt 0.691183 0.493603
vt 0.691183 0.006397
vt 0.863175 0.006397
vt 0.678389 0.993603
vt 0.506397 0.993603
vt 0.506397 0.506397
vt 0.678389 0.506397
vt 0.256896 0.506049
vt 0.495644 0.593750
vt 0.495644 0.769749
vt 0.256896 0.872815
vt 0.644957 0.493951
vt 0.384913 0.493951
vt 0.384913 0.006049
vt 0.644957 0.006049
vt 0.006049 0.506049
vt 0.244798 0.609114
vt 0.244798 0.785114
vt 0.006049 0.872814
vt 0.911402 0.493951
vt 0.657056 0.493951
vt 0.657056 0.006049
vt 0.911402 0.006049
vt 0.372815 0.006049
vt 0.372815 0.493951
vt 0.006049 0.493951
vt 0.006049 0.006049
vt 0.683742 0.506049
vt 0.683742 0.993951
vt 0.507743 0.993951
vt 0.507743 0.506049
vt 0.902574 0.733551
vt 0.902574 0.985741
vt 0.834780 0.985741
vt 0.834780 0.733551
vt 0.262068 0.348315
vt 0.009878 0.348315
vt 0.009878 0.009878
vt 0.262068 0.009878
vt 0.990122 0.733551
vt 0.990122 0.985741
vt 0.922329 0.985741
vt 0.922329 0.733551
vt 0.534013 0.348315
vt 0.281823 0.348315
vt 0.281823 0.009878
vt 0.534013 0.009878
vt 0.902574 0.375359
vt 0.902574 0.713796
vt 0.834780 0.713796
vt 0.834780 0.375359
vt 0.990122 0.375359
vt 0.990122 0.713796
vt 0.922329 0.713796
vt 0.922329 0.375359
vt 0.009878 0.368070
vt 0.171312 0.368070
vt 0.171312 0.820100
vt 0.009878 0.820100
vt 0.734957 0.864311
vt 0.734957 0.740841
vt 0.815025 0.740841
vt 0.815025 0.864311
vt 0.553768 0.009878
vt 0.715202 0.009878
vt 0.715202 0.461908
vt 0.553768 0.461908
vt 0.009878 0.963325
vt 0.009878 0.839855
vt 0.089945 0.839855
vt 0.089945 0.963325
vt 0.734957 0.009878
vt 0.815025 0.009878
vt 0.815025 0.355604
vt 0.734957 0.355604
vt 0.553768 0.481663
vt 0.633835 0.481663
vt 0.633835 0.827390
vt 0.553768 0.827390
vt 0.372257 0.368070
vt 0.533691 0.368070
vt 0.533691 0.820100
vt 0.372257 0.820100
vt 0.109700 0.963325
vt 0.109700 0.839855
vt 0.189768 0.839855
vt 0.189768 0.963325
vt 0.191067 0.368070
vt 0.352502 0.368070
vt 0.352502 0.820100
vt 0.191067 0.820100
vt 0.209523 0.963325
vt 0.209523 0.839855
vt 0.289591 0.839855
vt 0.289591 0.963325
vt 0.734957 0.375359
vt 0.815025 0.375359
vt 0.815025 0.721086
vt 0.734957 0.721086
vt 0.834780 0.009878
vt 0.914848 0.009878
vt 0.914848 0.355604
vt 0.834780 0.355604
vn -1.0000 0.0000 0.0000
vn 0.0000 0.0000 -1.0000
vn 1.0000 0.0000 0.0000
vn 0.0000 0.0000 1.0000
vn 0.0000 -1.0000 0.0000
vn 0.0000 1.0000 0.0000
vn 0.0000 0.7674 -0.6412
vn 0.0000 0.7135 0.7007
vn 0.0000 0.7648 -0.6442
vn 0.0000 -0.7648 0.6442
vn 0.0000 -0.6442 -0.7648
vn 0.0000 0.6442 0.7648
usemtl Material.004
s off
f 1/1/1 2/2/1 4/3/1 3/4/1
f 3/5/2 4/6/2 8/7/2 7/8/2
f 7/9/3 8/10/3 6/11/3 5/12/3
f 5/13/4 6/14/4 2/15/4 1/16/4
f 3/17/5 7/18/5 5/19/5 1/20/5
f 8/21/6 4/22/6 2/23/6 6/24/6
f 9/25/1 10/26/1 12/27/1 11/28/1
f 11/29/2 12/30/2 16/31/2 15/32/2
f 15/33/3 16/34/3 14/35/3 13/36/3
f 13/37/4 14/38/4 10/39/4 9/40/4
f 11/41/5 15/42/5 13/43/5 9/44/5
f 16/45/6 12/46/6 10/47/6 14/48/6
f 17/49/1 18/50/1 20/51/1 19/52/1
f 19/53/2 20/54/2 24/55/2 23/56/2
f 23/57/3 24/58/3 22/59/3 21/60/3
f 21/61/4 22/62/4 18/63/4 17/64/4
f 19/65/5 23/66/5 21/67/5 17/68/5
f 24/69/6 20/70/6 18/71/6 22/72/6
f 25/73/1 26/74/1 28/75/1 27/76/1
f 27/77/2 28/78/2 32/79/2 31/80/2
f 31/81/3 32/82/3 30/83/3 29/84/3
f 29/85/4 30/86/4 26/87/4 25/88/4
f 27/89/5 31/90/5 29/91/5 25/92/5
f 32/93/6 28/94/6 26/95/6 30/96/6
usemtl Material
f 33/97/6 37/98/6 39/99/6 35/100/6
f 36/101/4 35/102/4 39/103/4 40/104/4
f 40/105/1 39/106/1 37/107/1 38/108/1
f 38/109/5 34/110/5 36/111/5 40/112/5
f 34/113/3 33/114/3 35/115/3 36/116/3
f 38/117/2 37/118/2 33/119/2 34/120/2
f 41/121/1 42/122/1 44/123/1 43/124/1
f 43/125/7 44/126/7 48/127/7 47/128/7
f 47/129/3 48/130/3 46/131/3 45/132/3
f 45/133/8 46/134/8 42/135/8 41/136/8
f 43/137/5 47/138/5 45/139/5 41/140/5
f 48/141/6 44/142/6 42/143/6 46/144/6
usemtl Material.005
f 49/145/1 50/146/1 52/147/1 51/148/1
f 51/149/9 52/150/9 56/151/9 55/152/9
f 55/153/3 56/154/3 54/155/3 53/156/3
f 53/157/10 54/158/10 50/159/10 49/160/10
f 51/161/11 55/162/11 53/163/11 49/164/11
f 56/165/12 52/166/12 50/167/12 54/168/12
f 57/169/1 58/170/1 60/171/1 59/172/1
f 59/173/2 60/174/2 64/175/2 63/176/2
f 63/177/3 64/178/3 62/179/3 61/180/3
f 61/181/4 62/182/4 58/183/4 57/184/4
f 59/185/5 63/186/5 61/187/5 57/188/5
f 64/189/6 60/190/6 58/191/6 62/192/6
f 65/193/1 66/194/1 68/195/1 67/196/1
f 67/197/2 68/198/2 72/199/2 71/200/2
f 71/201/3 72/202/3 70/203/3 69/204/3
f 69/205/4 70/206/4 66/207/4 65/208/4
f 67/209/5 71/210/5 69/211/5 65/212/5
f 72/213/6 68/214/6 66/215/6 70/216/6
